<svg width="731" height="162" viewBox="0 0 731 162" fill="none" xmlns="http://www.w3.org/2000/svg">
<path d="M7.168 130.5V38.34H26.752L59.008 76.868L91.136 38.34H110.848V130.5H92.288V65.86L59.008 105.668L25.6 65.988V130.5H7.168ZM126.174 130.5V38.34H211.166V56.9H144.862V75.076H198.238V93.764H144.862V111.94H211.166V130.5H126.174ZM242.35 130.5C238.937 130.5 235.822 129.689 233.006 128.068C230.275 126.361 228.057 124.143 226.35 121.412C224.729 118.596 223.918 115.481 223.918 112.068V56.772C223.918 53.3587 224.729 50.2867 226.35 47.556C228.057 44.74 230.275 42.5213 233.006 40.9C235.822 39.1933 238.937 38.34 242.35 38.34H297.518C300.931 38.34 304.003 39.1933 306.734 40.9C309.55 42.5213 311.811 44.74 313.518 47.556C315.225 50.2867 316.078 53.3587 316.078 56.772V64.708H297.39V57.668C297.39 57.412 297.305 57.2413 297.134 57.156C297.049 56.9853 296.878 56.9 296.622 56.9H243.118C242.862 56.9 242.649 56.9853 242.478 57.156C242.393 57.2413 242.35 57.412 242.35 57.668V111.172C242.35 111.428 242.393 111.641 242.478 111.812C242.649 111.897 242.862 111.94 243.118 111.94H296.622C296.878 111.94 297.049 111.897 297.134 111.812C297.305 111.641 297.39 111.428 297.39 111.172V96.068H277.038V77.508H316.078V112.068C316.078 115.481 315.225 118.596 313.518 121.412C311.811 124.143 309.55 126.361 306.734 128.068C304.003 129.689 300.931 130.5 297.518 130.5H242.35ZM330.424 130.5V56.772C330.424 53.3587 331.235 50.2867 332.856 47.556C334.563 44.74 336.781 42.5213 339.512 40.9C342.328 39.1933 345.443 38.34 348.856 38.34H404.024C407.437 38.34 410.509 39.1933 413.24 40.9C416.056 42.5213 418.317 44.74 420.024 47.556C421.731 50.2867 422.584 53.3587 422.584 56.772V130.5H403.896V100.164H348.856V130.5H330.424ZM348.856 81.732H403.896V57.668C403.896 57.412 403.811 57.2413 403.64 57.156C403.555 56.9853 403.384 56.9 403.128 56.9H349.624C349.368 56.9 349.155 56.9853 348.984 57.156C348.899 57.2413 348.856 57.412 348.856 57.668V81.732Z" fill="#02C3A0"/>
<path d="M477.706 13H440.007V62.9132L452.246 62.8257L443.5 120.738C443.5 121.213 439.821 149.417 440.007 148.995L474.277 55.3881H466.255L466.203 36.8056H478.149C487.76 36.8056 495.552 45.279 495.552 55.7293C495.552 66.1807 491.065 74.653 481.454 74.653H478.981L469.754 98.5093L477.706 98.459C499.407 98.459 517 79.3285 517 55.7304C517 32.1324 499.407 13 477.706 13Z" fill="#02C3A0"/>
<path d="M552.344 130.5C548.931 130.5 545.816 129.689 543 128.068C540.269 126.361 538.051 124.143 536.344 121.412C534.723 118.596 533.912 115.481 533.912 112.068V56.772C533.912 53.3587 534.723 50.2867 536.344 47.556C538.051 44.74 540.269 42.5213 543 40.9C545.816 39.1933 548.931 38.34 552.344 38.34H607.64C610.968 38.34 613.997 39.1933 616.728 40.9C619.544 42.5213 621.805 44.74 623.512 47.556C625.219 50.2867 626.072 53.3587 626.072 56.772V112.068C626.072 115.481 625.219 118.596 623.512 121.412C621.805 124.143 619.544 126.361 616.728 128.068C613.997 129.689 610.968 130.5 607.64 130.5H552.344ZM553.112 111.94H606.616C606.872 111.94 607.043 111.897 607.128 111.812C607.299 111.641 607.384 111.428 607.384 111.172V57.668C607.384 57.412 607.299 57.2413 607.128 57.156C607.043 56.9853 606.872 56.9 606.616 56.9H553.112C552.856 56.9 552.643 56.9853 552.472 57.156C552.387 57.2413 552.344 57.412 552.344 57.668V111.172C552.344 111.428 552.387 111.641 552.472 111.812C552.643 111.897 552.856 111.94 553.112 111.94ZM672.424 130.5V56.9H635.56V38.34H727.72V56.9H690.984V130.5H672.424Z" fill="#02C3A0"/>
</svg>
